<svg height="512pt" viewBox="-32 0 512 512.00002" width="512pt" xmlns="http://www.w3.org/2000/svg"><path d="m448.730469 512h-448.730469v-256.417969l124.554688-98.09375 324.175781 98.09375zm0 0" fill="#ecce93"/><path d="m0 415.84375h448.730469v96.15625h-448.730469zm0 0" fill="#fba61f"/><path d="m0 255.582031h448.730469v96.15625h-448.730469zm0 0" fill="#fba61f"/><path d="m176.285156 111.347656h-32.050781v-29.453125c0-37.214843 23.71875-70.132812 59.039063-81.894531l10.144531 30.386719c-22.210938 7.417969-37.117188 28.109375-37.117188 51.507812v29.453125zm0 0" fill="#57565c"/><path d="m144.234375 111.347656h32.050781v-29.453125c0-5.820312.929688-11.460937 2.644532-16.765625-6.039063-1.199218-12.289063-1.859375-18.667969-1.859375-4.777344 0-9.441407.464844-14.023438 1.140625-1.171875 5.6875-2.003906 11.488282-2.003906 17.484375zm0 0" fill="#2d2d30"/><path d="m124.554688 157.488281-52.070313 41.011719c15.019531 33.589844 48.671875 57.082031 87.777344 57.082031 40.351562 0 74.90625-25 89.152343-60.304687zm0 0" fill="#e5bd76"/><path d="m224.363281 159.425781c0 35.40625-28.699219 64.105469-64.101562 64.105469-35.40625 0-64.105469-28.699219-64.105469-64.105469 0-35.402343 28.699219-64.101562 64.105469-64.101562 35.402343 0 64.101562 28.699219 64.101562 64.101562zm0 0" fill="#ff668b"/><path d="m144.234375 127.375h32.050781v32.050781h-32.050781zm0 0" fill="#fff"/><path d="m160.261719 191.480469c-29.792969 0-54.667969-20.5-61.828125-48.078125-1.347656 5.160156-2.277344 10.464844-2.277344 16.023437 0 35.355469 28.75 64.105469 64.105469 64.105469 35.351562 0 64.101562-28.75 64.101562-64.105469 0-5.558593-.929687-10.863281-2.273437-16.023437-7.164063 27.578125-32.035156 48.078125-61.828125 48.078125zm0 0" fill="#f7487a"/></svg>