<svg id="Icons" height="512" viewBox="0 0 512 512" width="512" xmlns="http://www.w3.org/2000/svg"><circle cx="256" cy="256" fill="#aa0dd1" r="256"/><path d="m490.58 358.54c-54.22 124.29-197.05 185.46-325.24 136.87-126.43-47.88-192.86-185.1-154.65-312.61 22.29-9.86 40.43-30.44 64.58-35.42 26-5.37 54.68 11.42 62.72 36.7 5.48 17.17 2.23 36.35 8.72 53.17 7.18 18.63 26.88 31.66 46.84 31 7.92-.27 15.89-2.47 23.66-.91 11.79 2.32 20.39 12.66 31.79 16.33 13.87 4.5 28.92-1.6 41.36-9.23s24.32-17.07 38.58-20.14c24.65-5.29 49.94 10.64 63.41 31.95 10 15.73 15.62 34.93 30.22 46.49 19.1 15.14 48.14 12.71 68.01 25.8z" fill="#8d00af"/><path d="m212.5 443a20.06 20.06 0 1 1 -10.89-17.83 20.06 20.06 0 0 1 10.89 17.83z" fill="#334353"/><path d="m203.83 434.35a20.05 20.05 0 0 1 -20.05 20 19.81 19.81 0 0 1 -9.17-2.22 20 20 0 0 1 27-27 19.78 19.78 0 0 1 2.22 9.22z" fill="#3e4e60"/><path d="m199.44 448.61a8 8 0 0 1 -2.44 1.69 8.23 8.23 0 0 1 -3.47.76 8.34 8.34 0 0 1 -5.91-2.45l-25.62-25.61h30.47l8.46 15.79a8.35 8.35 0 0 1 -1.49 9.82z" fill="#c2aacf"/><path d="m197 450.3a8.23 8.23 0 0 1 -3.47.76 8.34 8.34 0 0 1 -5.91-2.45l-21.53-21.52h22.22l8.46 15.78a8.35 8.35 0 0 1 .23 7.43z" fill="#decee5"/><path d="m325.6 443a20.06 20.06 0 1 1 -10.89-17.83 20.06 20.06 0 0 1 10.89 17.83z" fill="#334353"/><path d="m316.93 434.35a20.05 20.05 0 0 1 -20.05 20 19.81 19.81 0 0 1 -9.17-2.22 20 20 0 0 1 27-27 19.78 19.78 0 0 1 2.22 9.22z" fill="#3e4e60"/><path d="m312.54 448.61a8 8 0 0 1 -2.44 1.69 8.19 8.19 0 0 1 -3.47.76 8.34 8.34 0 0 1 -5.91-2.45l-25.65-25.61h30.47l8.46 15.75a8.35 8.35 0 0 1 -1.46 9.86z" fill="#c2aacf"/><path d="m310.1 450.3a8.19 8.19 0 0 1 -3.47.76 8.34 8.34 0 0 1 -5.91-2.45l-21.53-21.52h22.22l8.46 15.78a8.35 8.35 0 0 1 .23 7.43z" fill="#decee5"/><path d="m163.89 250a29.48 29.48 0 0 0 -29.46 29.45v69.3a29.38 29.38 0 0 0 5 16.46 29.45 29.45 0 0 0 24.43 13h176.28l34.35-128.21zm-9.54 98.75v-24.75h30.37v34.23h-20.83a9.56 9.56 0 0 1 -9.43-8.08 10.14 10.14 0 0 1 -.11-1.42zm50.3-24.75h32v34.23h-32zm51.89 0h32v34.23h-32zm51.88 34.23v-34.23h25.58l-9.17 34.23zm30.94-54.15h-30.94v-34.18h40.11zm-50.86 0h-32v-34.18h32zm-51.88 0h-32v-34.18h32zm-51.9 0h-30.37v-24.65a9.55 9.55 0 0 1 9.54-9.53h20.83z" fill="#c2aacf"/><path d="m163.89 250a29.48 29.48 0 0 0 -29.46 29.45v69.3a29.38 29.38 0 0 0 5 16.46 29.26 29.26 0 0 0 16.46 5h176.28l32.22-120.21zm-17.51 108.27v-42.2h38.34v42.2zm0-54.15v-32.65a9.55 9.55 0 0 1 9.54-9.54h28.8v42.19zm90.24 19.88v34.23h-39.94v-42.2h39.94zm0-54.14v34.22h-39.94v-42.15h39.94zm51.88 54.14v34.23h-39.93v-42.2h39.93zm0-54.14v34.22h-39.93v-42.15h39.93zm45.5 54.14-9.17 34.23h-24.38v-42.2h35.71zm-33.58-19.92v-42.15h50.22l-2.14 8-9.17 34.22h-38.88z" fill="#decee5"/><g fill="#f4e6f4"><ellipse cx="196.41" cy="255.96" rx="29.19" ry="5.98"/><ellipse cx="212.35" cy="308.27" rx="20.24" ry="4.14"/><ellipse cx="228.28" cy="362.41" rx="20.24" ry="4.14"/><ellipse cx="255.84" cy="255.96" rx="19.22" ry="3.94"/></g><path d="m439.57 230.86a10 10 0 0 1 -10 10h-44.33a10.82 10.82 0 0 0 -10.44 8l-40.8 152.26a29.5 29.5 0 0 1 -28.46 21.88h-155.07a10 10 0 0 1 0-19.92h155.07a9.55 9.55 0 0 0 9.21-7.07l40.81-152.3a30.76 30.76 0 0 1 29.68-22.77h44.37a10 10 0 0 1 10 10z" fill="#c2aacf"/><path d="m431.61 222.89a10 10 0 0 1 -10 10h-44.34a10.8 10.8 0 0 0 -10.43 8l-40.84 152.27a29.5 29.5 0 0 1 -28.43 21.84h-155.06a10 10 0 0 1 -1.83-.17 9.95 9.95 0 0 1 9.79-11.83h155.07a9.55 9.55 0 0 0 9.21-7.07l40.81-152.3a30.76 30.76 0 0 1 29.68-22.77h44.37a10 10 0 0 1 1.83.17 9.94 9.94 0 0 1 .17 1.86z" fill="#decee5"/><ellipse cx="170.71" cy="409.01" fill="#f4e6f4" rx="22.63" ry="4.63"/><ellipse cx="216.79" cy="409.01" fill="#f4e6f4" rx="14.91" ry="3.05"/><path d="m432.09 223.58v13.49a9 9 0 0 1 -9 9h-31.49a9 9 0 0 1 -9-9v-13.49a9 9 0 0 1 9-9h31.53a9 9 0 0 1 8.96 9z" fill="#334353"/><path d="m432.09 223.58v3.42a9 9 0 0 1 -9 9h-31.49a9 9 0 0 1 -9-9v-3.39a9 9 0 0 1 9-9h31.53a9 9 0 0 1 8.96 8.97z" fill="#3e4e60"/><ellipse cx="399.61" cy="221.62" fill="#3f6c8e" rx="10.89" ry="4.17"/><ellipse cx="420.14" cy="221.62" fill="#3f6c8e" rx="7.72" ry="2.96"/><path d="m295.53 67.18 67 17.95a8.14 8.14 0 0 1 5.75 10l-35.47 132.44a8.14 8.14 0 0 1 -10 5.74l-67-18a8.12 8.12 0 0 1 -5.75-9.95l35.5-132.48a8.12 8.12 0 0 1 9.97-5.7z" fill="#425e4a"/><path d="m285.57 72.92-35.5 132.48a8.12 8.12 0 0 0 5.75 9.95l67 18a8.14 8.14 0 0 0 10-5.74l35.48-132.52a8.14 8.14 0 0 0 -5.75-10l-67-17.95a8.12 8.12 0 0 0 -9.98 5.78zm52.49 14.18a32.38 32.38 0 0 0 16.3 28.21l-23.52 87.76a32.42 32.42 0 0 0 -28.22 16.3l-22.31-6a32.41 32.41 0 0 0 -16.31-28.2l23.52-87.76a32.41 32.41 0 0 0 28.22-16.29z" fill="#528f66"/><path d="m315.92 125.1a26 26 0 1 1 -31.92 18.41 26 26 0 0 1 31.92-18.41z" fill="#528f66"/><path d="m324.7 144.27a12.73 12.73 0 0 1 1.44 7.72l2.61.69a2.84 2.84 0 0 1 -1.47 5.49l-2.47-.66a19.41 19.41 0 0 1 -5.57 8.16 3.11 3.11 0 0 1 -4.65-.58c-1-1.48-.36-2.51.87-3.81a18.9 18.9 0 0 0 2.88-3.52c1.89-3.08 3.75-9.22-.78-10.52-3-.63-4.21 3-5.81 5.4-2.23 3.66-3.35 6.39-7 8.15a7.82 7.82 0 0 1 -5.45.23c-5.29-1.38-7.74-6.74-7.19-12.12l-2.61-.7a2.72 2.72 0 0 1 -2-3.48 2.69 2.69 0 0 1 3.48-2l2.52.68a17.74 17.74 0 0 1 5.18-6.9 2.79 2.79 0 0 1 2.81-.62c1.32.3 2.63 1.78 2.26 3.11a4 4 0 0 1 -1.31 2 22.7 22.7 0 0 0 -2.69 2.88c-2 2.69-3.29 8.86 1 10 3.28.72 4.57-3 6.21-5.59a44.66 44.66 0 0 1 3.13-5 9.38 9.38 0 0 1 3.68-2.94c3.57-1.71 9.07.3 10.93 3.93z" fill="#425e4a"/><path d="m237.4 55.11h69.39a8.13 8.13 0 0 1 8.13 8.13v137.15a8.13 8.13 0 0 1 -8.13 8.13h-69.39a8.13 8.13 0 0 1 -8.13-8.13v-137.15a8.13 8.13 0 0 1 8.13-8.13z" fill="#50755c"/><path d="m229.27 63.24v137.15a8.13 8.13 0 0 0 8.13 8.13h69.39a8.13 8.13 0 0 0 8.13-8.13v-137.15a8.13 8.13 0 0 0 -8.13-8.13h-69.39a8.13 8.13 0 0 0 -8.13 8.13zm54.38.11a32.35 32.35 0 0 0 23 23v90.86a32.4 32.4 0 0 0 -23 23h-23.11a32.4 32.4 0 0 0 -23-23v-90.82a32.4 32.4 0 0 0 23-23z" fill="#53b976"/><path d="m272.09 105.79a26 26 0 0 1 25.45 20.59 25.61 25.61 0 0 1 .58 5.44 26 26 0 1 1 -26-26z" fill="#53b976"/><path d="m285.54 122a12.75 12.75 0 0 1 3.38 7.08h2.7a2.84 2.84 0 0 1 0 5.68h-2.56a19.4 19.4 0 0 1 -3.26 9.33 3.12 3.12 0 0 1 -4.64.64c-1.37-1.16-1-2.34-.14-3.91a19.53 19.53 0 0 0 1.87-4.14c1-3.47 1.23-9.88-3.48-10-3 .17-3.3 4-4.22 6.73-1.21 4.11-1.58 7-4.64 9.68a7.81 7.81 0 0 1 -5.21 1.63c-5.46 0-9.22-4.5-10.08-9.85h-2.7a2.84 2.84 0 1 1 0-5.68h2.61a17.65 17.65 0 0 1 3.22-8 2.76 2.76 0 0 1 2.55-1.32c1.36-.05 3 1 3 2.41a4 4 0 0 1 -.75 2.23 21.48 21.48 0 0 0 -1.85 3.48c-1.25 3.11-.89 9.4 3.55 9.39 3.35-.15 3.64-4.05 4.55-7a43.89 43.89 0 0 1 1.72-5.66 9.42 9.42 0 0 1 2.8-3.79c3.04-2.44 8.84-1.93 11.58 1.07z" fill="#50755c"/><path d="m170.32 58.78 67-18a8.12 8.12 0 0 1 10 5.74l35.48 132.48a8.14 8.14 0 0 1 -5.75 10l-67.05 18a8.14 8.14 0 0 1 -10-5.74l-35.43-132.53a8.12 8.12 0 0 1 5.75-9.95z" fill="#528f66"/><path d="m164.57 68.73 35.49 132.48a8.14 8.14 0 0 0 9.94 5.79l67-17.95a8.14 8.14 0 0 0 5.75-10l-35.45-132.49a8.12 8.12 0 0 0 -10-5.74l-67 18a8.12 8.12 0 0 0 -5.73 9.91zm52.55-14a32.39 32.39 0 0 0 28.22 16.29l23.51 87.76a32.41 32.41 0 0 0 -16.29 28.22l-22.31 6a32.41 32.41 0 0 0 -28.25-16.28l-23.49-87.72a32.41 32.41 0 0 0 16.3-28.22z" fill="#78c795"/><path d="m217 98.75a26 26 0 0 1 29.91 13.3 25.41 25.41 0 0 1 2 5.1 26 26 0 1 1 -31.91-18.4z" fill="#78c795"/><path d="m234.14 111a12.75 12.75 0 0 1 5.1 6l2.6-.7a2.68 2.68 0 0 1 3.48 2 2.71 2.71 0 0 1 -2 3.48l-2.46.66a19.41 19.41 0 0 1 -.75 9.85c-.44 1.86-2.69 2.55-4.31 1.82s-1.57-2-1.15-3.73a19 19 0 0 0 .73-4.49c.1-3.62-1.36-9.86-5.94-8.73-2.89 1-2.14 4.71-2.33 7.59-.1 4.29.3 7.21-2 10.55a7.87 7.87 0 0 1 -4.61 2.93c-5.27 1.45-10.08-2-12.29-6.9l-2.61.69a2.71 2.71 0 0 1 -3.47-2 2.68 2.68 0 0 1 2-3.48l2.52-.68a17.76 17.76 0 0 1 1-8.56 2.76 2.76 0 0 1 2.12-1.94c1.3-.4 3.17.22 3.51 1.56a3.9 3.9 0 0 1 -.16 2.34 22.67 22.67 0 0 0 -.88 3.84c-.4 3.33 1.58 9.32 5.86 8.16 3.2-1 2.47-4.86 2.58-7.94a44.89 44.89 0 0 1 .2-5.91 9.49 9.49 0 0 1 1.72-4.39c2.34-3.27 8.11-4.28 11.54-2.02z" fill="#528f66"/></svg>