<?xml version="1.0" encoding="iso-8859-1"?>
<!-- Generator: Adobe Illustrator 21.0.0, SVG Export Plug-In . SVG Version: 6.00 Build 0)  -->
<svg version="1.1" id="Capa_1" xmlns="http://www.w3.org/2000/svg" xmlns:xlink="http://www.w3.org/1999/xlink" x="0px" y="0px"
	 viewBox="0 0 512 512" style="enable-background:new 0 0 512 512;" xml:space="preserve">
<path style="fill:#5CA33B;" d="M341.082,489.154c-6.424,3.595-14.961,6.9-26.265,9.542l-291.387-8.03
	c-0.073-0.964-0.124-297.717-0.155-298.65c-0.124-3.025,0.124-5.906,0.684-8.61c5.439-26.192,40.48-36.283,59.108-13.593
	c3.025,3.688,6.693,7.201,11.148,10.174c10.982,7.325,33.362,1.078,46.53,9.812c12.122,8.05,14.982,31.041,27.114,39.071
	c13.189,8.724,35.558,2.424,46.551,9.687c21.664,14.319,11.708,19.323,24.99,36.967c13.003,17.282,25.166,9.408,35.6,28.357
	c10.444,18.94-4.963,27.425,5.47,46.375c10.444,18.94,25.85,10.454,36.283,29.404c10.444,18.94-4.963,27.435,5.471,46.375
	c10.444,18.95,25.85,10.464,36.294,29.414C358.519,455.451,366.963,474.66,341.082,489.154z"/>
<path style="fill:#6DC54A;" d="M341.082,489.154c-6.424,3.595-14.961,6.9-26.265,9.542l-291.387-8.03
	c-0.073-0.964-0.124-297.717-0.155-298.65c-0.124-3.025,0.124-5.906,0.684-8.61c12.961-5.978,29.621-3.989,40.594,9.377
	c3.025,3.688,6.693,7.211,11.148,10.185c10.982,7.325,33.362,1.078,46.52,9.812c12.132,8.04,14.992,31.041,27.125,39.06
	c13.189,8.734,35.548,2.424,46.551,9.698c21.664,14.308,11.697,19.323,24.98,36.957c13.013,17.282,25.177,9.418,35.61,28.357
	c10.444,18.95-4.973,27.435,5.47,46.375c10.433,18.95,25.84,10.464,36.283,29.404c10.444,18.95-4.973,27.435,5.47,46.385
	c10.444,18.95,25.85,10.454,36.283,29.404C339.994,478.421,341.962,482.897,341.082,489.154z"/>
<path style="fill:#E3D000;" d="M288.076,502.717l-23.519-20.949L91.884,327.961l35.548-33.227l15.438-14.422l110.073,64.309
	c3.616,2.103,6.134,5.678,6.921,9.781L288.076,502.717z"/>
<path style="fill:#FFF36C;" d="M264.557,481.767L91.884,327.961l35.548-33.227l108.56,63.408c3.606,2.114,6.123,5.678,6.911,9.791
	L264.557,481.767z"/>
<path style="fill:#D63030;" d="M177.734,310.524c0,48.488-39.309,87.797-87.797,87.797c-25.539,0-48.53-10.9-64.568-28.306
	c-14.412-15.634-23.229-36.542-23.229-59.492c0-48.488,39.309-87.797,87.797-87.797c40.842,0,75.167,27.891,84.979,65.656
	C176.76,295.46,177.734,302.878,177.734,310.524z"/>
<path style="fill:#FB5858;" d="M177.734,310.524c0,48.488-39.309,87.797-87.797,87.797c-25.539,0-48.53-10.9-64.568-28.306
	c-1.844-7.076-2.818-14.495-2.818-22.141c0-48.488,39.309-87.797,87.797-87.797c25.539,0,48.52,10.9,64.568,28.306
	C176.76,295.46,177.734,302.878,177.734,310.524z"/>
<path style="fill:#F77026;" d="M318.029,490.667C315.366,502.24,305.389,512,291.371,512H28.414
	c-15.085,0-27.311-12.236-27.311-27.311V221.732c0-18.919,17.779-30.502,33.776-26.627c4.579,1.109,9.024,3.492,12.847,7.315
	l262.957,262.957C317.977,472.67,319.987,482.161,318.029,490.667z"/>
<path style="fill:#FF883E;" d="M318.029,490.667H61.693c-15.085,0-27.311-12.226-27.311-27.311V200.399
	c0-1.834,0.166-3.606,0.497-5.294c4.579,1.109,9.024,3.492,12.847,7.315l262.957,262.957
	C317.977,472.67,319.987,482.161,318.029,490.667z"/>
<g>
	<path style="fill:#F95F00;" d="M41.149,308.616c-1.988,0-3.978-0.758-5.495-2.275c-3.035-3.036-3.035-7.955,0-10.99l30.953-30.953
		c3.036-3.034,7.955-3.034,10.99,0c3.035,3.036,3.035,7.955,0,10.99L46.645,306.34C45.127,307.856,43.138,308.616,41.149,308.616z"
		/>
	<path style="fill:#F95F00;" d="M29.887,389.607c-1.988,0-3.978-0.758-5.495-2.275c-3.035-3.036-3.035-7.955,0-10.99l77.08-77.08
		c3.036-3.034,7.955-3.034,10.99,0c3.035,3.036,3.035,7.955,0,10.99l-77.08,77.08C33.865,388.848,31.875,389.607,29.887,389.607z"/>
	<path style="fill:#F95F00;" d="M38.047,451.176c-1.988,0-3.978-0.758-5.495-2.275c-3.035-3.036-3.035-7.955,0-10.99
		l103.784-103.784c3.036-3.034,7.955-3.034,10.99,0c3.035,3.036,3.035,7.955,0,10.99L43.542,448.901
		C42.025,450.417,40.036,451.176,38.047,451.176z"/>
	<path style="fill:#F95F00;" d="M72.911,486.04c-1.988,0-3.978-0.758-5.495-2.275c-3.035-3.036-3.035-7.955,0-10.99L171.2,368.991
		c3.036-3.034,7.955-3.034,10.99,0c3.035,3.036,3.035,7.955,0,10.99L78.406,483.765C76.889,485.281,74.9,486.04,72.911,486.04z"/>
	<path style="fill:#F95F00;" d="M134.48,494.2c-1.988,0-3.978-0.758-5.495-2.275c-3.035-3.036-3.035-7.955,0-10.99l77.08-77.08
		c3.036-3.034,7.955-3.034,10.99,0c3.035,3.036,3.035,7.955,0,10.99l-77.08,77.08C138.458,493.441,136.469,494.2,134.48,494.2z"/>
	<path style="fill:#F95F00;" d="M215.472,482.938c-1.988,0-3.978-0.758-5.495-2.275c-3.035-3.036-3.035-7.955,0-10.99l30.953-30.953
		c3.036-3.034,7.955-3.034,10.99,0c3.035,3.036,3.035,7.955,0,10.99l-30.953,30.953C219.449,482.179,217.46,482.938,215.472,482.938
		z"/>
</g>
<path style="fill:#5CA33B;" d="M170.918,22.846c6.424-3.595,14.961-6.9,26.265-9.542l291.387,8.03
	c0.073,0.964,0.124,297.717,0.155,298.65c0.124,3.025-0.124,5.906-0.684,8.61c-5.439,26.192-40.48,36.283-59.108,13.593
	c-3.025-3.688-6.693-7.201-11.148-10.174c-10.982-7.325-33.362-1.078-46.53-9.812c-12.122-8.05-14.982-31.041-27.114-39.071
	c-13.189-8.724-35.558-2.424-46.551-9.687c-21.664-14.319-11.708-19.323-24.99-36.967c-13.003-17.282-25.166-9.408-35.6-28.357
	c-10.444-18.94,4.963-27.425-5.471-46.375c-10.444-18.94-25.85-10.454-36.283-29.404c-10.444-18.94,4.963-27.435-5.47-46.375
	c-10.444-18.95-25.85-10.464-36.294-29.414C153.481,56.549,145.037,37.34,170.918,22.846z"/>
<path style="fill:#6DC54A;" d="M170.918,22.846c6.424-3.595,14.961-6.9,26.265-9.542l291.387,8.03
	c0.073,0.964,0.124,297.717,0.155,298.65c0.124,3.025-0.124,5.906-0.684,8.61c-12.961,5.978-29.621,3.989-40.594-9.376
	c-3.025-3.688-6.693-7.211-11.148-10.185c-10.982-7.325-33.362-1.078-46.52-9.812c-12.132-8.04-14.992-31.041-27.125-39.06
	c-13.189-8.734-35.548-2.424-46.551-9.698c-21.664-14.308-11.697-19.323-24.98-36.957c-13.013-17.282-25.177-9.418-35.61-28.357
	c-10.444-18.95,4.973-27.435-5.47-46.375c-10.433-18.95-25.84-10.464-36.283-29.404c-10.444-18.95,4.973-27.435-5.47-46.385
	c-10.444-18.95-25.85-10.454-36.283-29.404C172.006,33.579,170.038,29.103,170.918,22.846z"/>
<path style="fill:#E3D000;" d="M223.924,9.283l23.519,20.95l172.673,153.806l-35.548,33.227l-15.438,14.422l-110.073-64.309
	c-3.616-2.103-6.134-5.678-6.921-9.781L223.924,9.283z"/>
<path style="fill:#FFF36C;" d="M247.443,30.233l172.673,153.806l-35.548,33.227l-108.56-63.408
	c-3.606-2.114-6.123-5.678-6.911-9.791L247.443,30.233z"/>
<path style="fill:#D63030;" d="M334.266,201.476c0-48.488,39.309-87.797,87.797-87.797c25.539,0,48.53,10.9,64.568,28.306
	c14.412,15.634,23.229,36.542,23.229,59.492c0,48.488-39.309,87.797-87.797,87.797c-40.842,0-75.167-27.891-84.979-65.656
	C335.24,216.54,334.266,209.122,334.266,201.476z"/>
<path style="fill:#FB5858;" d="M334.266,201.476c0-48.488,39.309-87.797,87.797-87.797c25.539,0,48.53,10.9,64.568,28.306
	c1.844,7.076,2.818,14.495,2.818,22.141c0,48.488-39.309,87.797-87.797,87.797c-25.539,0-48.52-10.9-64.568-28.306
	C335.24,216.54,334.266,209.122,334.266,201.476z"/>
<path style="fill:#F77026;" d="M193.971,21.333C196.634,9.76,206.611,0,220.629,0h262.957c15.085,0,27.311,12.236,27.311,27.311
	v262.957c0,18.919-17.779,30.502-33.776,26.627c-4.579-1.109-9.024-3.492-12.847-7.315L201.317,46.624
	C194.023,39.33,192.013,29.839,193.971,21.333z"/>
<path style="fill:#FF883E;" d="M193.971,21.333h256.336c15.085,0,27.311,12.226,27.311,27.311v262.957
	c0,1.834-0.166,3.606-0.497,5.294c-4.579-1.109-9.024-3.492-12.847-7.315L201.317,46.624
	C194.023,39.33,192.013,29.839,193.971,21.333z"/>
<g>
	<path style="fill:#F95F00;" d="M470.852,203.384c1.988,0,3.977,0.758,5.495,2.275c3.035,3.036,3.035,7.955,0,10.99l-30.953,30.953
		c-3.036,3.034-7.955,3.034-10.99,0c-3.035-3.036-3.035-7.955,0-10.99l30.953-30.953
		C466.874,204.143,468.863,203.384,470.852,203.384z"/>
	<path style="fill:#F95F00;" d="M482.114,122.393c1.988,0,3.978,0.758,5.495,2.275c3.035,3.036,3.035,7.955,0,10.99l-77.08,77.08
		c-3.036,3.034-7.955,3.034-10.99,0c-3.035-3.036-3.035-7.955,0-10.99l77.08-77.08C478.136,123.151,480.126,122.393,482.114,122.393
		z"/>
	<path style="fill:#F95F00;" d="M473.954,60.824c1.988,0,3.978,0.758,5.495,2.275c3.035,3.036,3.035,7.955,0,10.99L375.665,177.873
		c-3.036,3.034-7.955,3.034-10.99,0c-3.035-3.036-3.035-7.955,0-10.99L468.459,63.099C469.976,61.582,471.965,60.824,473.954,60.824
		z"/>
	<path style="fill:#F95F00;" d="M439.089,25.96c1.988,0,3.978,0.758,5.495,2.275c3.035,3.036,3.035,7.955,0,10.99L340.8,143.009
		c-3.036,3.034-7.955,3.034-10.99,0c-3.035-3.036-3.035-7.955,0-10.99L433.594,28.235C435.112,26.718,437.1,25.96,439.089,25.96z"/>
	<path style="fill:#F95F00;" d="M377.521,17.8c1.988,0,3.977,0.758,5.495,2.275c3.035,3.036,3.035,7.955,0,10.99l-77.08,77.08
		c-3.036,3.034-7.955,3.034-10.99,0c-3.035-3.036-3.035-7.955,0-10.99l77.08-77.08C373.543,18.558,375.532,17.8,377.521,17.8z"/>
	<path style="fill:#F95F00;" d="M296.529,29.062c1.988,0,3.978,0.758,5.495,2.275c3.035,3.036,3.035,7.955,0,10.99L271.072,73.28
		c-3.036,3.034-7.955,3.034-10.99,0c-3.035-3.036-3.035-7.955,0-10.99l30.953-30.953C292.552,29.82,294.541,29.062,296.529,29.062z"
		/>
</g>
<g>
</g>
<g>
</g>
<g>
</g>
<g>
</g>
<g>
</g>
<g>
</g>
<g>
</g>
<g>
</g>
<g>
</g>
<g>
</g>
<g>
</g>
<g>
</g>
<g>
</g>
<g>
</g>
<g>
</g>
</svg>
