<svg height="496pt" viewBox="0 0 496 496" width="496pt" xmlns="http://www.w3.org/2000/svg"><path d="m376 240c0 12.800781 13.039062 23.761719 32 28.878906v10c0 6-1.121094 12-3.359375 17.601563l-.71875 1.839843c-6.242187 15.441407-20 26.320313-36.082031 28.960938-.726563.160156-1.449219.320312-2.238282.320312 6.550782-23.28125 10.398438-49.679687 10.398438-79.601562 0-2.71875 0-5.359375-.078125-8zm0 0" fill="#b4dd7f"/><path d="m375.921875 240c-.882813-37.039062-7.769531-68.480469-18.242187-95.121094-8.480469-21.597656-19.359376-40.078125-31.199219-55.757812-47.039063-62.082032-110.480469-81.121094-110.480469-81.121094h-16v480h16s68.152344-20.480469 115.441406-88c13.917969-19.839844 26.085938-43.761719 34.167969-72.398438 6.542969-23.28125 10.390625-49.679687 10.390625-79.601562 0-2.71875 0-5.359375-.078125-8zm0 0" fill="#fcd770"/><g fill="#b4dd7f"><path d="m366.398438 134.398438-6.398438 9.601562-2.320312.878906c-8.480469-21.597656-19.359376-40.078125-31.199219-55.757812l1.519531-1.121094h13.519531c11.359375 0 21.679688 6.398438 26.71875 16.480469 4.800781 9.597656 4.082031 21.039062-1.839843 29.917969zm0 0"/><path d="m174.398438 134.398438-6.398438 9.601562-2.320312.878906c-8.480469-21.597656-19.359376-40.078125-31.199219-55.757812l1.519531-1.121094h13.519531c11.359375 0 21.679688 6.398438 26.71875 16.480469 4.800781 9.597656 4.082031 21.039062-1.839843 29.917969zm0 0"/><path d="m184 240c0 12.800781 13.039062 23.761719 32 28.878906v10c0 6-1.121094 12-3.359375 17.601563l-.71875 1.839843c-6.242187 15.441407-20 26.320313-36.082031 28.960938-.726563.160156-1.449219.320312-2.238282.320312 6.550782-23.28125 10.398438-49.679687 10.398438-79.601562 0-2.71875 0-5.359375-.078125-8zm0 0"/><path d="m372.398438 332.398438c7.449218 7.441406 11.601562 17.523437 11.601562 28 0 10.960937-4.480469 20.800781-11.601562 28-7.199219 7.121093-17.039063 11.601562-28 11.601562h-12.957032c13.917969-19.839844 26.085938-43.761719 34.167969-72.398438.796875 0 1.511719-.160156 2.238281-.320312l.152344.71875zm0 0"/><path d="m392 206.878906c0 .800782.078125 1.601563 2.152344 9.519532-11.113282 5.921874-18.152344 14.242187-18.152344 23.601562h-.078125c-.882813-37.039062-7.769531-68.480469-18.242187-95.121094l2.320312-.878906c7.359375 0 14.398438 2.078125 20.398438 5.761719 6 3.757812 11.042968 9.117187 14.320312 15.679687 3.441406 6.957032 5.28125 14.558594 5.28125 22.320313v2.238281c-5.039062 4.078125-8 10.238281-8 16.878906zm0 0"/><path d="m202.152344 216.398438c-11.113282 5.921874-18.152344 14.242187-18.152344 23.601562h-.078125c-.882813-37.039062-7.769531-68.480469-18.242187-95.121094l2.320312-.878906c7.359375 0 14.398438 2.078125 20.398438 5.761719 6 3.757812 11.042968 9.117187 14.320312 15.679687 3.441406 6.957032 5.28125 14.558594 5.28125 22.320313v2.238281c-5.039062 4.078125-8 10.238281-8 16.878906 0 .800782.078125 1.601563 2.152344 9.519532zm0 0"/><path d="m180.398438 332.398438c7.449218 7.441406 11.601562 17.523437 11.601562 28 0 10.960937-4.480469 20.800781-11.601562 28-7.199219 7.121093-17.039063 11.601562-28 11.601562h-12.957032c13.917969-19.839844 26.085938-43.761719 34.167969-72.398438.796875 0 1.511719-.160156 2.238281-.320312l.152344.71875zm0 0"/></g><path d="m432 272c5.121094 0 10.078125-.398438 14.800781-1.199219l.160157 1.199219c-17.039063 186.480469-230.960938 216-230.960938 216s68.152344-20.480469 115.441406-88h12.957032c10.960937 0 20.808593-4.480469 28-11.601562 7.128906-7.199219 11.601562-17.039063 11.601562-28 0-10.476563-4.160156-20.558594-11.601562-28l-4.398438-4.398438-.160156-.71875c16.082031-2.640625 29.839844-13.519531 36.082031-28.960938l.71875-1.839843c2.238281-5.601563 3.359375-11.601563 3.359375-17.601563v-10c7.28125 2 15.359375 3.121094 24 3.121094zm0 0" fill="#ffc729"/><path d="m173.601562 327.601562c-8.082031 28.636719-20.242187 52.558594-34.167968 72.398438-47.28125 67.519531-115.433594 88-115.433594 88h-16v-480h16s63.441406 19.039062 110.480469 81.121094c11.839843 15.679687 22.726562 34.160156 31.199219 55.757812 10.472656 26.640625 17.359374 58.082032 18.242187 95.121094.078125 2.640625.078125 5.28125.078125 8 0 29.921875-3.847656 56.320312-10.398438 79.601562zm0 0" fill="#fcd770"/><path d="m216 8s169.441406 23.359375 218.71875 160l1.042969.480469c-2.402344 4.878906-6.554688 8.640625-11.515625 10.640625l-18.398438 7.359375c-2.160156.878906-4.160156 2.078125-5.839844 3.519531v-2.238281c0-7.761719-1.847656-15.363281-5.28125-22.320313-3.277343-6.5625-8.320312-11.921875-14.320312-15.679687-6.007812-3.683594-13.046875-5.761719-20.40625-5.761719l6.398438-9.601562c5.921874-8.878907 6.640624-20.320313 1.839843-29.917969-5.039062-10.082031-15.359375-16.480469-26.71875-16.480469h-13.519531l-1.519531 1.121094c-47.039063-62.082032-110.480469-81.121094-110.480469-81.121094zm0 0" fill="#ffc729"/><path d="m248 160-4.238281 8.480469-1.042969-.480469c-2.796875-7.761719-6-15.121094-9.511719-22.160156 2.472657-5.761719 8.152344-9.839844 14.792969-9.839844h3.121094c3.199218 0 6.320312.960938 8.878906 2.71875l20 13.28125-20 13.28125c-1.359375.957031-2.960938 1.679688-4.558594 2.160156zm0 0" fill="#cf9e76"/><path d="m251.121094 328c3.199218 0 6.320312.960938 8.878906 2.71875l20 13.28125-20 13.28125c-2.558594 1.757812-5.679688 2.71875-8.878906 2.71875h-3.121094c-6.640625 0-12.320312-4-14.71875-9.761719l-.082031-.078125c3.441406-6.71875 6.480469-13.761718 9.121093-21.121094 1.757813-.640624 3.679688-1.039062 5.679688-1.039062zm0 0" fill="#cf9e76"/><path d="m88 344-20 13.28125c-2.558594 1.757812-5.679688 2.71875-8.878906 2.71875h-3.121094c-8.800781 0-16-7.199219-16-16 0-4.398438 1.761719-8.398438 4.71875-11.28125 2.882812-2.957031 6.882812-4.71875 11.28125-4.71875h3.121094c3.199218 0 6.320312.960938 8.878906 2.71875zm0 0" fill="#cf9e76"/><path d="m88 248-20 13.28125c-2.558594 1.757812-5.679688 2.71875-8.878906 2.71875h-3.121094c-8.800781 0-16-7.199219-16-16 0-4.398438 1.761719-8.398438 4.71875-11.28125 2.882812-2.957031 6.882812-4.71875 11.28125-4.71875h3.121094c3.199218 0 6.320312.960938 8.878906 2.71875zm0 0" fill="#cf9e76"/><path d="m88 152-20 13.28125c-2.558594 1.757812-5.679688 2.71875-8.878906 2.71875h-3.121094c-8.800781 0-16-7.199219-16-16 0-4.398438 1.761719-8.398438 4.71875-11.28125 2.882812-2.957031 6.882812-4.71875 11.28125-4.71875h3.121094c3.199218 0 6.320312.960938 8.878906 2.71875zm0 0" fill="#cf9e76"/><path d="m184 240c0-9.359375 7.039062-17.679688 18.152344-23.601562-2.074219-7.917969-2.152344-8.71875-2.152344-9.519532 0-6.640625 2.960938-12.800781 8-16.878906 1.679688-1.441406 3.679688-2.640625 5.839844-3.519531l18.398437-7.359375c4.960938-2 9.121094-5.761719 11.515625-10.640625l4.246094-8.480469 7.441406 7.441406 18.085938 18.078125c4.160156 4.160157 6.480468 9.761719 6.480468 15.601563 0 5.117187-1.441406 10.078125-4 14.320312 12.230469 5.917969 19.992188 14.71875 19.992188 24.558594 0 14.71875-17.441406 27.199219-41.199219 30.800781-4.722656.800781-9.679687 1.199219-14.800781 1.199219-8.640625 0-16.71875-1.121094-24-3.121094-18.960938-5.117187-32-16.078125-32-28.878906zm0 0" fill="#f5f7fa"/><path d="m468 215.441406c12.238281 5.917969 20 14.71875 20 24.558594 0 14.71875-17.441406 27.199219-41.199219 30.800781-4.722656.800781-9.679687 1.199219-14.800781 1.199219-8.640625 0-16.71875-1.121094-24-3.121094-18.960938-5.117187-32-16.078125-32-28.878906 0-9.359375 7.039062-17.679688 18.152344-23.601562-2.074219-7.917969-2.152344-8.71875-2.152344-9.519532 0-6.640625 2.960938-12.800781 8-16.878906 1.679688-1.441406 3.679688-2.640625 5.839844-3.519531l18.398437-7.359375c4.960938-2 9.121094-5.761719 11.515625-10.640625l4.246094-8.480469 25.519531 25.519531c4.160157 4.160157 6.480469 9.761719 6.480469 15.601563 0 5.117187-1.441406 10.078125-4 14.320312zm0 0" fill="#f5f7fa"/><path d="m176.238281 104.480469c-5.039062-10.082031-15.359375-16.480469-26.71875-16.480469h-13.519531l-1.519531 1.121094c-47.039063-62.082032-110.480469-81.121094-110.480469-81.121094s107.359375 14.800781 176 89.761719c12.71875 13.839843 24.078125 29.757812 33.199219 48.078125 3.511719 7.039062 6.722656 14.398437 9.511719 22.160156l1.042968.480469c-2.402344 4.878906-6.554687 8.640625-11.515625 10.640625l-18.398437 7.359375c-2.160156.878906-4.160156 2.078125-5.839844 3.519531v-2.238281c0-7.761719-1.847656-15.363281-5.28125-22.320313-3.277344-6.5625-8.320312-11.921875-14.320312-15.679687-6-3.683594-13.039063-5.761719-20.398438-5.761719l6.398438-9.601562c5.921874-8.878907 6.640624-20.320313 1.839843-29.917969zm0 0" fill="#ffc729"/><path d="m180.398438 388.398438c7.128906-7.199219 11.601562-17.039063 11.601562-28 0-10.476563-4.160156-20.558594-11.601562-28l-4.398438-4.398438-.160156-.71875c16.082031-2.640625 29.839844-13.519531 36.082031-28.960938l.71875-1.839843c2.238281-5.601563 3.359375-11.601563 3.359375-17.601563v-10c7.28125 2 15.359375 3.121094 24 3.121094 5.121094 0 10.078125-.398438 14.800781-1.199219l.160157 1.199219c-1.921876 20.960938-6.320313 39.921875-12.640626 57.039062-2.640624 7.359376-5.679687 14.402344-9.121093 21.121094-9.277344 18.71875-20.960938 34.960938-34.085938 49.039063-68.632812 74.082031-175.113281 88.800781-175.113281 88.800781s68.152344-20.480469 115.441406-88h12.957032c10.960937 0 20.800781-4.480469 28-11.601562zm0 0" fill="#ffc729"/><path d="m59.160156 320h-3.160156c-13.230469 0-24 10.769531-24 24s10.769531 24 24 24h3.160156c4.769532 0 9.367188-1.390625 13.3125-4.03125l29.953125-19.96875-29.945312-19.96875c-3.960938-2.640625-8.558594-4.03125-13.320313-4.03125zm4.425782 30.664062c-1.3125.871094-2.84375 1.335938-4.425782 1.335938h-3.160156c-4.414062 0-8-3.59375-8-8s3.585938-8 8-8h3.160156c1.582032 0 3.121094.464844 4.441406 1.34375l9.972657 6.65625zm0 0"/><path d="m59.160156 224h-3.160156c-13.230469 0-24 10.769531-24 24s10.769531 24 24 24h3.160156c4.769532 0 9.367188-1.390625 13.3125-4.03125l29.953125-19.96875-29.945312-19.96875c-3.960938-2.640625-8.558594-4.03125-13.320313-4.03125zm4.425782 30.664062c-1.3125.871094-2.84375 1.335938-4.425782 1.335938h-3.160156c-4.414062 0-8-3.59375-8-8s3.585938-8 8-8h3.160156c1.582032 0 3.121094.464844 4.441406 1.34375l9.972657 6.65625zm0 0"/><path d="m59.160156 128h-3.160156c-13.230469 0-24 10.769531-24 24s10.769531 24 24 24h3.160156c4.769532 0 9.367188-1.390625 13.3125-4.03125l29.953125-19.96875-29.945312-19.96875c-3.960938-2.640625-8.558594-4.03125-13.320313-4.03125zm4.425782 30.664062c-1.3125.871094-2.84375 1.335938-4.425782 1.335938h-3.160156c-4.414062 0-8-3.59375-8-8s3.585938-8 8-8h3.160156c1.582032 0 3.121094.464844 4.441406 1.34375l9.972657 6.65625zm0 0"/><path d="m496 240c0-10.703125-6.433594-20.566406-17.792969-27.902344 1.136719-3.503906 1.792969-7.195312 1.792969-10.984375 0-8.007812-3.128906-15.539062-8.792969-21.210937l-33.40625-33.40625-1.800781 3.601562c-23-50.921875-66.105469-92.410156-125.703125-120.570312-49.066406-23.175782-91.425781-29.207032-93.199219-29.4570315l-.042968.2499995-25.054688-.320312v78.535156c-20.558594-19.078125-45.257812-35.558594-73.703125-49-49.066406-23.183594-91.425781-29.214844-93.199219-29.4648435l-.042968.2499995-25.054688-.320312v496h25.167969l.59375-.175781c8.148437-1.273438 99.085937-16.746094 166.238281-78.769531v78.945312h25.167969l.59375-.175781c12.398437-1.929688 216.390625-36.753907 236.527343-218.28125 24.566407-5.542969 41.710938-20.046875 41.710938-37.542969zm-69.832031-71.855469c-1.390625 1.488281-2.984375 2.765625-4.902344 3.535157l-14.304687 5.71875c-.984376-5.375-2.625-10.621094-5.066407-15.511719-5.894531-11.78125-16.199219-20.238281-28.359375-23.878907 7.023438-11.160156 7.792969-25.265624 1.878906-37.078124-6.460937-12.914063-19.4375-20.929688-33.871093-20.929688h-12.574219c-14.9375-18.695312-31.183594-33.457031-46.578125-44.902344 50.714844 19.980469 115.953125 59.175782 143.777344 133.046875zm-66.433594-38.175781c-5.679687-12.375-12.101563-23.679688-19.023437-33.96875h.832031c8.335937 0 15.824219 4.632812 19.546875 12.089844 3.503906 6.980468 2.980468 15.367187-1.355469 21.878906zm9.746094 211.414062c4.152343 5.464844 6.519531 12.03125 6.519531 19.015626 0 16.824218-13.246094 30.488281-29.839844 31.425781 8.917969-14.648438 16.953125-31.410157 23.320313-50.441407zm7.085937-25.054687c3.511719-15.375 5.945313-32.015625 6.929688-50.015625 4.671875 3.375 10.230468 6.230469 16.503906 8.457031v4.125c0 5.015625-.945312 9.921875-2.816406 14.585938l-.734375 1.832031c-3.808594 9.542969-11 16.902344-19.882813 21.015625zm5.722656-101.753906c-2.3125-22.527344-6.90625-42.863281-13.160156-61.175781 7.910156 2.433593 14.605469 7.953124 18.457032 15.640624 2.703124 5.425782 4.167968 11.457032 4.351562 17.503907-5.015625 5.417969-7.9375 12.601562-7.9375 20.34375 0 2.035156.207031 4.035156.609375 5.984375-.808594.554687-1.570313 1.128906-2.320313 1.703125zm-148.121093-46.429688c-1.390625 1.488281-2.984375 2.765625-4.902344 3.535157l-14.304687 5.71875c-.984376-5.375-2.625-10.621094-5.066407-15.511719-5.894531-11.78125-16.199219-20.238281-28.359375-23.878907 7.023438-11.160156 7.792969-25.265624 1.878906-37.078124-6.460937-12.914063-19.4375-20.929688-33.871093-20.929688h-12.574219c-14.9375-18.695312-31.183594-33.457031-46.578125-44.902344 50.714844 19.980469 115.953125 59.175782 143.777344 133.046875zm33.640625 65.328125c1.464844-.785156 2.871094-1.640625 4.238281-2.550781 2.210937-1.472656 4.183594-3.203125 5.984375-5.074219 6.304688 4.199219 9.96875 9.257813 9.96875 14.152344 0 11.351562-19.710938 24-48 24s-48-12.648438-48-24c0-4.414062 2.855469-8.902344 8.023438-12.824219.273437.296875.480468.640625.769531.9375 3.464843 3.453125 7.472656 6.230469 11.894531 8.238281l6.625-14.558593c-2.6875-1.226563-5.121094-2.90625-7.207031-5-2.609375-2.617188-4.105469-6.226563-4.105469-9.90625 0-5.757813 3.457031-10.855469 8.800781-13l18.40625-7.359375c6.34375-2.535156 11.601563-7.144532 14.960938-13.054688l17.734375 17.734375c2.640625 2.648438 4.097656 6.167969 4.097656 9.90625 0 6.640625-3.296875 12.808594-8.839844 16.503907-.960937.648437-1.953125 1.230468-2.960937 1.78125zm-16.648438 102.527344c1.582032 0 3.121094.464844 4.441406 1.34375l9.972657 6.65625-9.988281 6.664062c-1.3125.871094-2.84375 1.335938-4.425782 1.335938h-3.160156c-2.222656 0-4.246094-.960938-5.726562-2.496094 2.078124-4.375 4.046874-8.871094 5.871093-13.503906zm-83.425781-206.03125c-5.679687-12.375-12.101563-23.679688-19.023437-33.96875h.832031c8.335937 0 15.824219 4.632812 19.546875 12.089844 3.503906 6.980468 2.980468 15.367187-1.355469 21.878906zm27.839844 39.070312c2.707031 5.425782 4.167969 11.457032 4.355469 17.503907-5.007813 5.417969-7.929688 12.601562-7.929688 20.34375 0 2.035156.207031 4.035156.609375 5.984375-.808594.554687-1.570313 1.128906-2.320313 1.703125-2.3125-22.527344-6.90625-42.863281-13.160156-61.175781 7.910156 2.433593 14.605469 7.953124 18.445313 15.640624zm-18.09375 172.34375c4.152343 5.464844 6.519531 12.03125 6.519531 19.015626 0 16.824218-13.246094 30.488281-29.839844 31.425781 8.917969-14.648438 16.953125-31.410157 23.320313-50.441407zm7.085937-25.054687c3.511719-15.375 5.945313-32.015625 6.929688-50.015625 4.671875 3.375 10.230468 6.230469 16.503906 8.457031v4.125c0 5.015625-.945312 9.921875-2.816406 14.585938l-.734375 1.832031c-3.808594 9.542969-11 16.902344-19.882813 21.015625zm72.449219-158.625-11.214844-11.214844-1.800781 3.609375c-.550781-1.226562-1.097656-2.449218-1.664062-3.65625 1.472656-1.496094 3.464843-2.441406 5.664062-2.441406h3.160156c1.582032 0 3.121094.464844 4.441406 1.34375l9.972657 6.65625zm-241.015625 322.296875v-464h6.734375c13.511719 4.550781 153.265625 56.078125 153.265625 232 0 177.457031-138.375 227.175781-153.222656 232zm76.175781-19.945312c5.648438-4.253907 11.398438-8.917969 17.167969-14.109376 11.175781-10.066406 22.976562-22.648437 34.070312-37.945312h8.984376c26.25 0 47.601562-21.351562 47.601562-47.601562 0-10.664063-3.519531-20.765626-9.953125-29.0625 13.066406-5.671876 23.714844-16.207032 29.265625-30.070313l.734375-1.832031c2.625-6.570313 3.953125-13.472656 3.953125-20.539063v-.160156c5.105469.800781 10.449219 1.265625 16 1.265625 1.984375 0 3.9375-.070312 5.871094-.175781-13.472656 104.320312-93.3125 155.910156-153.695313 180.230469zm115.824219 19.945312v-79.214844c9.847656-11.015625 18.921875-23.191406 26.71875-36.785156 3.855469 2.558594 8.441406 4 13.28125 4h3.160156c4.769532 0 9.367188-1.390625 13.3125-4.03125l29.953125-19.96875-29.945312-19.96875c-3.265625-2.175781-6.976563-3.457031-10.847657-3.855469 4.046876-13.214843 6.96875-27.433593 8.65625-42.640625 24.566407-5.535156 41.710938-20.039062 41.710938-37.535156 0-10.703125-6.433594-20.566406-17.792969-27.902344 1.136719-3.503906 1.792969-7.195312 1.792969-10.984375 0-8.007812-3.128906-15.539062-8.792969-21.210937l-10.65625-10.65625 25.875-17.246094-29.945312-19.96875c-3.960938-2.640625-8.558594-4.03125-13.320313-4.03125h-3.160156c-4.824219 0-9.390625 1.433594-13.230469 3.96875-7.511719-13.113281-16.457031-25.503906-26.769531-37.089844v-78.878906h6.734375c13.511719 4.550781 153.265625 56.078125 153.265625 232 0 177.457031-138.375 227.175781-153.222656 232zm76.175781-19.945312c5.648438-4.253907 11.398438-8.917969 17.167969-14.109376 11.175781-10.066406 22.976562-22.648437 34.070312-37.945312h8.984376c26.25 0 47.601562-21.351562 47.601562-47.601562 0-10.664063-3.519531-20.765626-9.953125-29.0625 13.066406-5.671876 23.714844-16.207032 29.265625-30.070313l.734375-1.832031c2.625-6.570313 3.953125-13.472656 3.953125-20.539063v-.160156c5.105469.800781 10.449219 1.265625 16 1.265625 1.984375 0 3.9375-.070312 5.871094-.175781-13.472656 104.320312-93.3125 155.910156-153.695313 180.230469zm147.824219-196.054688c-28.289062 0-48-12.648438-48-24 0-4.414062 2.855469-8.902344 8.023438-12.824219.273437.296875.480468.640625.769531.9375 3.464843 3.453125 7.472656 6.230469 11.894531 8.238281l6.625-14.558593c-2.6875-1.226563-5.121094-2.90625-7.207031-5-2.609375-2.617188-4.105469-6.226563-4.105469-9.90625 0-5.757813 3.457031-10.855469 8.800781-13l18.40625-7.359375c6.34375-2.535156 11.601563-7.144532 14.960938-13.054688l17.734375 17.734375c2.640625 2.648438 4.097656 6.167969 4.097656 9.90625 0 6.640625-3.296875 12.808594-8.839844 16.503907-.960937.648437-1.953125 1.230468-2.960937 1.78125l7.609375 14.074218c1.464844-.785156 2.871094-1.640625 4.238281-2.550781 2.210937-1.472656 4.183594-3.203125 5.984375-5.074219 6.304688 4.199219 9.96875 9.257813 9.96875 14.152344 0 11.351562-19.710938 24-48 24zm0 0"/></svg>